<?xml version="1.0" encoding="utf-8"?>
<svg xmlns="http://www.w3.org/2000/svg" width="256" height="256" viewBox="0 0 48 48">
  <path fill="red" d="M2,11.5c14.667-5,29.333,5,44,0c0,8.333,0,16.667,0,25c-14.667,5-29.333-5-44,0C2,28.167,2,19.833,2,11.5z" />
  <path fill="#FFF" d="M22.017,15.852c1.663,0.276,3.326,0.57,4.988,0.838c0,1.823,0,3.646,0,5.469c1.94,0.312,3.88,0.588,5.82,0.759c0,1.563,0,3.125,0,4.688c-1.94-0.171-3.88-0.447-5.82-0.759c0,1.823,0,3.646,0,5.469c-1.663-0.268-3.326-0.562-4.988-0.838c0-1.823,0-3.646,0-5.469c-1.94-0.323-3.88-0.621-5.82-0.827c0-1.563,0-3.125,0-4.688c1.94,0.206,3.88,0.505,5.82,0.827C22.017,19.498,22.017,17.675,22.017,15.852z" />
  <linearGradient id="iAiTq27CbQXxTNqbyWfl~a" x1="2" x2="46" y1="26" y2="26" gradientTransform="matrix(1 0 0 -1 0 50)" gradientUnits="userSpaceOnUse">
    <stop offset=".004" stop-color="#5c0001" stop-opacity=".58" />
    <stop offset=".034" stop-color="#650001" stop-opacity=".477" />
    <stop offset=".116" stop-color="#770001" stop-opacity=".199" />
    <stop offset=".175" stop-color="#7d0001" stop-opacity="0" />
    <stop offset=".279" stop-color="#2b0718" stop-opacity="0" />
    <stop offset=".332" stop-color="#000b24" stop-opacity="0" />
    <stop offset=".546" stop-opacity=".25" />
    <stop offset=".631" stop-color="#000612" stop-opacity=".138" />
    <stop offset=".736" stop-color="#000b24" stop-opacity="0" />
    <stop offset=".77" stop-color="#200717" stop-opacity="0" />
    <stop offset=".822" stop-color="#4b0206" stop-opacity="0" />
    <stop offset=".849" stop-color="#5c0000" stop-opacity="0" />
    <stop offset=".994" stop-color="#5c0000" stop-opacity=".423" />
    <stop offset="1" stop-color="#5c0000" stop-opacity=".44" />
  </linearGradient>
  <path fill="url(#iAiTq27CbQXxTNqbyWfl~a)" d="M2,11.5c14.667-5,29.333,5,44,0c0,8.333,0,16.667,0,25c-14.667,5-29.333-5-44,0C2,28.167,2,19.833,2,11.5z" opacity=".9" />
  <linearGradient id="iAiTq27CbQXxTNqbyWfl~b" x1="2" x2="46" y1="26" y2="26" gradientTransform="matrix(1 0 0 -1 0 50)" gradientUnits="userSpaceOnUse">
    <stop offset=".052" stop-color="#ffeded" stop-opacity="0" />
    <stop offset=".222" stop-color="#ffe3e3" stop-opacity=".7" />
    <stop offset=".337" stop-color="#ffe8e8" stop-opacity=".223" />
    <stop offset=".39" stop-color="#ffeded" stop-opacity="0" />
    <stop offset=".641" stop-color="#ffeded" stop-opacity="0" />
    <stop offset=".667" stop-color="#ffeded" stop-opacity=".063" />
    <stop offset=".849" stop-color="#ffeded" stop-opacity=".5" />
    <stop offset="1" stop-color="#ffeded" stop-opacity="0" />
  </linearGradient>
  <path fill="url(#iAiTq27CbQXxTNqbyWfl~b)" d="M2,11.5c14.667-5,29.333,5,44,0c0,8.333,0,16.667,0,25c-14.667,5-29.333-5-44,0C2,28.167,2,19.833,2,11.5z" opacity=".6" />
</svg>